<svg width="99" height="29" viewBox="0 0 99 29" fill="none" xmlns="http://www.w3.org/2000/svg">
<path d="M7.584 23.336C6.208 23.336 4.88 23.168 3.6 22.832C2.336 22.48 1.304 22.032 0.504 21.488L2.064 17.984C2.816 18.464 3.68 18.864 4.656 19.184C5.648 19.488 6.632 19.64 7.608 19.64C8.264 19.64 8.792 19.584 9.192 19.472C9.592 19.344 9.88 19.184 10.056 18.992C10.248 18.784 10.344 18.544 10.344 18.272C10.344 17.888 10.168 17.584 9.816 17.36C9.464 17.136 9.008 16.952 8.448 16.808C7.888 16.664 7.264 16.52 6.576 16.376C5.904 16.232 5.224 16.048 4.536 15.824C3.864 15.6 3.248 15.312 2.688 14.96C2.128 14.592 1.672 14.12 1.32 13.544C0.968 12.952 0.792 12.208 0.792 11.312C0.792 10.304 1.064 9.392 1.608 8.576C2.168 7.76 3 7.104 4.104 6.608C5.208 6.112 6.584 5.864 8.232 5.864C9.336 5.864 10.416 5.992 11.472 6.248C12.544 6.488 13.496 6.848 14.328 7.328L12.864 10.856C12.064 10.424 11.272 10.104 10.488 9.896C9.704 9.672 8.944 9.56 8.208 9.56C7.552 9.56 7.024 9.632 6.624 9.776C6.224 9.904 5.936 10.08 5.76 10.304C5.584 10.528 5.496 10.784 5.496 11.072C5.496 11.44 5.664 11.736 6 11.96C6.352 12.168 6.808 12.344 7.368 12.488C7.944 12.616 8.568 12.752 9.24 12.896C9.928 13.04 10.608 13.224 11.28 13.448C11.968 13.656 12.592 13.944 13.152 14.312C13.712 14.664 14.16 15.136 14.496 15.728C14.848 16.304 15.024 17.032 15.024 17.912C15.024 18.888 14.744 19.792 14.184 20.624C13.64 21.44 12.816 22.096 11.712 22.592C10.624 23.088 9.248 23.336 7.584 23.336ZM17.2191 23V6.2H21.9711V23H17.2191ZM25.3519 23V6.2H29.2639L38.5279 17.384H36.6799V6.2H41.3359V23H37.4239L28.1599 11.816H30.0079V23H25.3519ZM42.6718 23L50.0878 6.2H54.7678L62.2078 23H57.2638L51.4558 8.528H53.3278L47.5198 23H42.6718ZM46.7278 19.736L47.9518 16.232H56.1598L57.3838 19.736H46.7278ZM66.7695 23L61.3215 6.2H66.2175L70.8015 20.744H68.3295L73.1535 6.2H77.5215L82.0815 20.744H79.7055L84.4335 6.2H88.9695L83.5215 23H78.4335L74.5455 10.64H75.9135L71.8575 23H66.7695Z" fill="black"/>
<circle cx="94.5" cy="18.5" r="4.5" fill="#366C34"/>
</svg>
