<svg width="677" height="490" viewBox="0 0 677 490" fill="none" xmlns="http://www.w3.org/2000/svg">
<path fill-rule="evenodd" clip-rule="evenodd" d="M287.547 206.135C280.259 211.487 281.42 222.016 283.613 229.667C286.844 240.932 293.278 251.36 300.618 260.349C313.639 276.295 335.745 294.201 356.122 280.201C374.268 267.733 385.714 242.575 389.665 221.385C390.886 214.836 392.512 205.078 386.775 200.155C378.293 192.877 363.331 194.201 353.091 195.138C346.348 195.755 339.841 197.849 333.177 196.866C317.694 194.58 300.461 196.651 287.547 206.135Z" fill="#366C34"/>
<path fill-rule="evenodd" clip-rule="evenodd" d="M601.475 289.583C586.713 308.553 561.615 311.55 539.324 311.364C525.939 311.252 512.527 310.231 499.405 307.468C492.33 305.978 485.303 304.004 478.467 301.634C473.952 300.067 467.23 299.284 465.309 294.383C460.24 281.452 463.97 265.236 466.056 252.11C467.118 245.435 467.915 238.719 468.948 232.037C469.608 227.763 469.925 223.033 471.693 219.034C473.764 214.349 476.38 215.284 480.759 216.579C486.793 218.363 492.988 219.105 499.191 220.064C514.332 222.406 527.54 227.129 541.3 233.823C554.906 240.441 568.103 246.974 580.239 256.177C586.387 260.84 591.686 265.902 596.621 271.846C600.434 276.438 606.125 283.607 601.475 289.583ZM536.945 373.841C536.826 375.884 513.69 369.717 510.646 369.026C490.668 364.486 470.296 359.317 451.436 351.116C433.833 343.461 418.322 334.704 404.47 321.104C398.013 314.765 392.205 308.089 386.648 300.979C383.863 297.416 380.057 297.83 376.951 294.815C374.157 292.102 372.015 289.983 372.888 285.927C379.869 287.79 392.76 299.504 399.997 293.589C404.123 290.217 398.401 286.695 395.76 284.742C390.795 281.068 386.549 276.536 382.602 271.779C389.379 273.11 395.687 275.681 401.585 279.26C404.205 280.849 413.186 286.615 415.277 281.119C416.564 277.735 410.474 273.484 408.575 271.612C403.913 267.016 398.879 261.651 396.404 255.472C402.524 254.034 408.293 258.826 412.461 262.729C417.088 267.061 422.759 271.609 426.638 276.602C428.64 279.177 429.075 282.219 430.638 284.996C432.398 288.121 435.211 290.8 437.901 293.112C443.082 297.568 449.143 300.848 455.363 303.561C469.578 309.761 484.814 314.149 499.966 317.226C507.399 318.737 514.649 319.432 522.194 319.688C528.058 319.888 530.652 321.664 532.891 327.136C538.949 341.945 537.849 358.237 536.945 373.841ZM362.95 261.003C359.56 264.217 355.155 266.232 351.611 269.322C348.493 272.04 344.896 274.94 341.416 277.138C337.701 279.484 334.925 277.84 331.58 275.716C327.653 273.226 323.139 272.216 319.094 269.988C305.11 262.278 288.001 243.385 290.612 226.039C291.719 218.687 295.471 211.452 302.285 208.116C308.473 205.087 317.469 203.407 324.089 205.938C327.823 207.367 330.495 210.521 332.888 213.621C335.678 217.235 336.746 216.665 339.588 213.179C344.672 206.944 353.057 201.473 361.345 201.605C365.465 201.671 369.557 202.551 373.267 204.282C373.77 204.518 374.05 205.229 374.555 205.469C375.175 205.765 376.193 205.15 376.624 205.426C377.71 206.123 378.795 208.3 379.421 209.404C381.936 213.836 386.464 222.527 381.901 226.258C381.898 226.26 382.104 231.307 382.042 231.883C381.72 234.893 380.692 237.379 379.368 240.133C375.393 248.405 369.524 254.774 362.95 261.003ZM369.709 330.993C366.498 332.005 363.039 321.81 366.119 320.182C369.056 318.63 372.617 330.079 369.709 330.993ZM319.27 318.804C318.157 322.655 317.688 327.025 314.968 330.16C312.478 327.166 312.232 321.643 314.647 318.566C316.026 316.81 320.486 314.596 319.27 318.804ZM422.039 251.328C422.021 251.425 425.903 253.306 424.009 255.363C421.421 258.172 421.777 252.704 422.039 251.328ZM438.082 219.941C438.038 223.835 429.9 222.895 429.958 218.978C430.029 214.158 438.13 215.813 438.082 219.941ZM428.368 187.396C429.174 183.831 443.328 178.872 442.943 185.085C442.749 188.2 426.66 194.976 428.368 187.396ZM283.263 308.301C281.676 310.233 279.423 310.995 277.521 312.478C275.526 314.033 274.101 316.049 272.359 317.874C267.575 322.884 261.817 327.001 256.656 331.604C247.168 340.064 238.08 349.159 227.56 356.335C208.762 369.156 186.963 376.169 165.322 382.309C163.529 382.817 158.365 384.871 156.591 383.341C154.678 381.692 155.651 375.888 155.739 373.694C156.098 364.698 157.133 355.594 157.021 346.611C156.975 342.921 155.908 337.676 157.809 334.3C159.931 330.529 165.855 329.426 169.52 328.007C180.659 323.694 191.39 316.419 201.23 309.68C213.326 301.397 225.542 292.976 237.99 285.243C250.185 277.667 263.637 272.594 277.241 268.267C277.871 269.609 271.38 273.926 270.638 274.532C267.079 277.434 263.207 280.443 260.565 284.274C258.695 286.986 256.777 293.123 261.941 293.281C264.445 293.358 268.146 290.904 270.416 290.111C274.165 288.8 278.029 287.88 281.951 287.281C278.579 291.042 267.15 297.798 269.23 304.052C271.247 310.122 282.917 303.039 286.934 303.039C286.275 305.156 284.62 306.649 283.263 308.301ZM145.397 325.241C137.924 327.903 130.263 329.417 122.55 331.135C115.198 332.774 108.402 334.009 100.872 333.049C90.4751 331.725 78.9696 327.363 77.6514 315.395C76.0884 301.215 85.974 288.185 94.4627 278.012C104.793 265.635 116.394 254.569 128.966 244.55C141.524 234.54 155.078 225.715 169.279 218.265C180.082 212.598 192.284 209.156 203.707 204.903C205.88 204.094 211.891 201.251 213.923 203.607C215.566 205.512 213.33 208.687 212.582 210.456C211.121 213.906 210.92 217.378 210.543 221.081C208.859 237.62 206.832 254.154 205.899 270.764C205.639 275.393 205.181 280.235 205.448 284.868C205.595 287.433 206.913 290.701 206.035 293.206C204.348 298.021 196.621 301.209 192.527 303.36C185.196 307.21 177.433 310.083 170.027 313.767C161.893 317.812 153.974 322.184 145.397 325.241ZM249.044 217.777C251.095 217.492 254.168 216.926 255.997 218.272C258.382 220.028 257.756 222.471 255.554 223.744C253.814 224.75 249.743 225.026 248.024 224.112C245.097 222.557 245.592 218.259 249.044 217.777ZM260.405 256.074C258.747 258.871 252.689 260.705 253.216 255.486C253.669 251.017 263.458 250.924 260.405 256.074ZM258.156 177.283C260.821 178.329 265.657 179.224 266.447 182.696C267.183 185.928 264.159 185.715 261.977 184.825C260.183 184.095 252.189 177.227 258.156 177.283ZM675.679 300.576C674.122 294.441 675.308 287.648 674.449 281.364C673.616 275.272 672.116 269.674 669.965 263.933C665.201 251.223 659.743 239.782 652.021 228.627C637.478 207.621 620.605 189.119 600.23 173.775C580.115 158.629 557.842 146.319 534.247 137.692C509.227 128.543 484.042 125.358 457.657 123.604C449.777 123.081 441.906 122.461 434.071 121.452C428.345 120.716 421.166 119.808 415.505 121.585C411.948 122.702 409.961 125.844 413.836 127.906C416.583 129.368 420.179 129.542 423.213 129.931C419.548 141.726 413.585 153.562 404.134 161.683C394.908 169.613 382.562 172.331 370.917 174.342C364.603 175.432 357.533 176.276 351.121 175.805C347.067 175.509 343.904 173.607 342.267 177.838C341.132 180.776 340.595 184.001 339.099 179.564C337.329 174.317 336.461 174.351 330.955 172.861C319.695 169.814 306.787 167.033 296.964 160.444C286.773 153.607 283.228 142.547 277.539 132.248C276.131 129.703 271.888 124.55 274.056 121.634C276.039 118.966 282.489 119.232 285.442 118.954C288.558 118.66 291.694 118.648 294.821 118.525C296.632 118.454 300.277 119.206 299.548 116.465C298.448 112.334 286.667 112.863 283.741 112.796C278.301 112.673 272.785 112.8 267.372 113.407C240.532 116.413 213.451 121.973 187.478 129.388C137.087 143.772 88.282 170.277 51.5068 208.462C16.2063 245.115 5.02244 306.11 26.7239 352.911C38.0017 377.234 62.4771 387.225 86.2027 395.295C98.7171 399.551 111.969 402.88 125.272 402.077C131.656 401.691 137.713 399.95 143.939 398.639C146.654 398.066 149.744 397.153 152.533 397.384C154.645 397.558 156.673 399.521 158.653 398.478C160.059 397.738 160.67 395.612 162.388 394.707C164.45 393.621 166.95 393.228 169.178 392.68C175.369 391.157 181.364 388.686 187.415 386.661C193.673 384.566 199.578 381.868 205.583 379.14C208.615 377.762 215.631 372.161 217.606 376.256C218.507 378.125 218.124 381.729 218.343 383.69C218.727 387.118 219.179 390.538 219.672 393.952C220.76 401.467 222.062 408.951 223.396 416.426C225.805 429.912 228.908 442.823 234.097 455.51C238.24 465.64 241.878 477.121 249.571 485.18C252.93 488.697 257.512 490.28 262.329 489.175C267.809 487.917 270.536 482.875 273.862 478.799C281.181 469.828 293.264 462.954 304.421 460.48C318.083 457.45 331.392 461.882 344.433 465.649C358.228 469.633 372.271 473.43 385.811 478.219C398.428 482.683 412.051 489.276 425.735 488.702C437.667 488.202 448.813 478.364 457.419 470.865C466.062 463.333 476.869 452.306 489.297 453.193C495.468 453.633 501.092 456.649 507.103 457.875C513.702 459.221 520.724 459.412 527.434 459.914C535.764 460.537 554.401 458.337 557.482 448.185C557.939 446.679 557.942 443.578 555.979 442.975C554.173 442.422 553.251 444.56 551.539 444.462C548.059 444.264 545.339 438.116 543.427 435.735C535.709 426.126 525.123 418.959 516.464 410.278C506.686 400.478 498.337 388.603 490.969 376.891C494.3 376.014 497.894 377.47 501.118 378.162C505.035 379.003 508.852 380.019 512.713 381.095C516.967 382.282 521.282 383.098 525.6 384.002C528.822 384.676 533.098 384.879 536.005 386.516C538.544 387.946 539.961 389.481 543.112 389.895C546.317 390.316 549.607 389.961 552.827 389.939C561.535 389.88 570.225 389.716 578.892 388.783C609.517 385.488 641.98 372.365 660.395 346.323C665.404 339.24 669.439 331.393 671.989 323.066C673.979 316.564 677.411 307.403 675.679 300.576Z" fill="black"/>
<path fill-rule="evenodd" clip-rule="evenodd" d="M388.44 0.525009C396.488 0.640406 404.032 3.05798 411.531 5.80636C418.126 8.22297 425.156 10.4588 430.489 15.2824C440.08 23.9593 442.579 38.3263 444.148 50.618C446.106 65.9562 439.591 78.8249 434.107 92.7015C428.979 105.68 419.566 116.193 408.377 124.205C402.515 128.402 396.037 130.935 389.259 133.156C382.374 135.412 375.706 138.433 368.339 138.422C357.153 138.406 342.831 133.023 338.066 121.859C335.897 116.775 338.009 115.863 342.35 118.625C348.648 122.634 354.72 126.959 362.079 128.737C376.352 132.187 393.447 126.843 405.963 119.792C418.474 112.743 426.873 102.154 432.486 88.9693C438.15 75.6679 440.351 62.5607 438.166 48.2206C436.316 36.0683 432.633 24.9681 421.823 18.3712C398.486 4.13213 367.044 5.27938 346.29 23.7843C343.444 26.3211 340.631 28.7896 337.698 31.212C335.833 32.7516 333.637 34.5989 333.908 37.2617C334.14 39.5418 338.939 48.3331 333.16 45.6328C328.475 43.4432 325.93 39.1629 320.255 38.633C314.214 38.0685 307.01 42.7691 305.203 48.6851C303.479 54.3299 306.552 62.0529 311.366 65.2908C314.347 67.2958 317.627 66.9861 321.012 66.9054C322.692 66.865 327.369 66.312 328.481 68.1113C330.448 71.2933 323.508 74.6379 321.269 75.3419C315.818 77.0546 309.377 75.039 306.244 70.1105C303.059 65.1004 300.879 59.3016 300.44 53.3327C300.021 47.6138 301.302 41.8238 304.633 37.1281C308.175 32.1342 315.396 26.5356 321.87 28.2704C324.679 29.0233 326.937 31.964 329.694 32.5228C331.435 32.8747 330.702 33.1267 332.144 31.8198C333.059 30.9909 333.925 29.4609 334.77 28.4781C339.628 22.8275 344.432 16.797 350.378 12.2744C361.041 4.16483 375.212 0.334603 388.44 0.525009ZM358.956 112.555C360.217 109.56 362.533 114.902 363.218 115.795C364.574 117.562 367.762 118.937 367.625 121.543C367.398 125.846 361.608 125.048 359.678 122.803C357.481 120.248 357.711 115.512 358.956 112.555ZM400.085 92.1836C403.208 97.1139 399.402 102.436 396.932 106.8C394.571 110.972 392.379 115.688 389.63 119.611C385.067 126.123 375.141 119.078 374.846 112.385C374.621 107.261 378.203 109.492 380.503 111.405C382.87 113.376 383.991 113.867 386.473 111.714C391.464 107.382 393.707 100.137 397.158 94.6522C397.842 93.5646 399.082 92.9106 400.085 92.1836ZM408.988 93.769C409.793 96.1532 408.104 102.471 412.8 101.839C415.396 101.491 415.949 97.7182 417.314 96.0717C421.902 90.5369 420.495 101.005 419.296 103.625C416.653 109.4 409.257 113.379 405.589 106.053C404.225 103.328 404.231 99.8883 404.924 96.9588C405.301 95.3634 407.502 89.3659 408.988 93.769ZM367.106 82.4766C366.69 85.2586 364.109 90.8011 367.26 92.7913C370.033 94.5432 374.863 90.7389 376.998 89.1504C379.217 87.4997 384.246 82.7645 384.443 88.6573C384.544 91.661 381.575 95.265 379.457 96.9954C374.938 100.686 365.549 103.996 362.219 97.0499C360.405 93.266 361.397 87.8791 362.596 84.066C363.569 80.9757 368.11 75.757 367.106 82.4766ZM426.374 67.2457C428.213 69.4089 432.572 74.2556 430.202 77.3364C427.431 80.9373 422.929 74.3305 421.154 72.4916C419.555 70.8351 416.191 66.118 417.625 63.6159C420 59.4756 424.759 65.3464 426.374 67.2457ZM397.47 57.9308C403.481 61.8976 395.578 64.754 392.154 65.1092C388.01 65.5372 382.712 65.8213 378.907 63.7616C373.512 60.8418 375.31 56.4315 380.539 55.3757C385.901 54.294 392.805 54.8517 397.47 57.9308ZM319.326 45.3025C323.746 46.1738 328.795 47.3077 330.301 52.1896C331.855 57.2349 329.622 58.9093 325.106 57.7735C320.929 56.7223 314.689 55.6644 312.328 51.5308C309.506 46.5922 315.227 44.4956 319.326 45.3025Z" fill="black"/>
<path fill-rule="evenodd" clip-rule="evenodd" d="M76.1016 153.713C74.6182 158.566 67.1101 161.785 63.366 164.735C50.2697 175.056 37.4724 185.801 25.6327 197.58C19.4874 203.694 14.836 211.089 9.50696 217.889C8.20673 219.549 5.90333 223.266 3.35317 222.916C0.555295 222.535 -0.0103529 217.653 0.07886 215.521C0.384462 208.252 6.93877 201.231 11.613 196.225C16.8708 190.596 22.4922 185.111 28.2331 179.985C34.554 174.343 41.4129 169.493 48.4029 164.744C55.2666 160.082 61.8475 154.695 68.9854 150.472C72.348 148.482 77.9314 147.726 76.1016 153.713ZM533.889 107.626C539.355 107.8 544.69 109.617 549.845 111.303C561.185 115.013 571.986 120.159 582.636 125.537C601.309 134.965 619.278 146.373 635.749 159.343C639.192 162.053 642.722 164.249 646.466 166.466C648.862 167.886 652.278 169.618 653.202 172.512C655.547 179.868 643.71 172.485 642.031 171.429L639.668 169.945C604.623 147.942 569.618 126.565 529.977 113.947C527.866 113.274 527.209 111.366 528.317 109.475C529.518 107.425 531.858 107.561 533.889 107.626ZM74.5067 123.021C74.2533 125.261 71.749 125.77 70.06 126.489C63.7577 129.171 57.2982 131.458 51.0131 134.184C39.3477 139.243 28.635 146.586 16.459 150.426C13.6765 151.305 13.2659 148.46 14.0109 146.524C14.8406 144.364 17.3325 142.847 19.1348 141.597C24.334 137.989 30.2305 135.395 36.0042 132.889C41.7282 130.402 47.6219 128.521 53.4908 126.437C58.9453 124.499 65.2761 120.893 71.1336 120.627L71.3896 120.614C73.2538 120.519 74.8019 120.391 74.5067 123.021ZM543.839 88.9953C538.265 87.4072 543.531 83.8331 546.843 84.0842C550.538 84.3647 554.109 86.1318 557.613 87.1978C568.327 90.4564 578.257 94.02 588.265 99.078C589.758 99.8331 596.334 103.413 591.984 104.998C588.969 106.096 581.929 101.384 579.341 100.254C567.967 95.2859 555.746 92.3874 543.839 88.9953Z" fill="black"/>
<path fill-rule="evenodd" clip-rule="evenodd" d="M321.67 100.564C322.367 98.4937 330.983 75.8598 327.611 75.1772C324.039 74.4535 319.264 87.5856 318.227 89.9582C314.4 98.7209 312.134 108.123 310.358 117.522C309.122 124.067 308.035 130.771 308.468 137.462C308.801 142.604 310.897 143.383 314.352 146.534C314.352 130.915 316.695 115.347 321.67 100.564Z" fill="black"/>
</svg>
