<svg width="720" height="623" viewBox="0 0 720 623" fill="none" xmlns="http://www.w3.org/2000/svg">
<path fill-rule="evenodd" clip-rule="evenodd" d="M142.839 341.574C146.639 370.446 150.439 399.318 154.24 428.191L157.308 451.506C157.696 454.448 157.33 460.252 158.806 462.885C159.327 463.814 160.697 464.256 161.705 464.803C165.172 466.689 168.64 468.575 172.108 470.461C201.44 486.414 230.773 502.367 260.104 518.32C288.254 533.63 316.405 548.941 344.555 564.25C347.468 565.835 352.18 569.969 355.325 568.88C358.314 567.845 361.369 565.291 364.083 563.681C369.293 560.588 374.502 557.496 379.712 554.402C411.235 535.688 442.758 516.973 474.282 498.259C487.288 490.538 500.293 482.817 513.3 475.095C516.858 472.982 520.417 470.87 523.976 468.757C525.837 467.652 526.078 467.691 526.811 465.816C529.55 458.804 530.818 450.773 532.756 443.498C534.892 435.481 537.028 427.464 539.163 419.447C540.115 415.869 539.669 415.408 538.115 411.954C535.042 405.119 531.968 398.285 528.895 391.451C522.073 376.281 515.252 361.112 508.429 345.942C505.671 339.808 499.026 335.492 494.242 330.98L419.964 260.926C418.077 259.146 416.19 257.367 414.304 255.587C413.993 266.282 411.907 277.779 414.967 288.11C419.989 305.065 425.01 322.02 430.03 338.975C432.458 347.171 434.884 355.365 437.311 363.56C437.762 365.083 440.507 371.12 439.774 372.46C439.367 373.202 435.899 373.953 435.148 374.242C431.922 375.485 428.695 376.729 425.468 377.973C416.479 381.437 407.489 384.902 398.5 388.366C390.414 391.482 382.329 394.598 374.243 397.714C371.501 398.771 368.281 400.727 365.386 400.564C362.795 400.418 359.85 399.12 357.343 398.466C352.937 397.316 348.529 396.166 344.123 395.016C335.466 392.757 326.809 390.499 318.152 388.24C308.413 385.698 300.189 378.235 291.86 372.71C277.543 363.214 263.227 353.719 248.911 344.223C245.634 342.049 245.622 340.809 244.316 336.84C241.381 327.92 238.445 319 235.51 310.08C233.943 305.318 232.016 300.535 230.832 295.659C228.88 287.612 227.722 279.281 226.175 271.145C225.709 268.69 225.243 266.235 224.777 263.78C218.781 266.245 212.786 268.71 206.789 271.175C205.921 271.532 201.686 272.597 201.31 273.472C201.071 274.026 202.331 276.536 202.511 277.076C207.482 291.991 212.453 306.906 217.425 321.821C218.989 326.513 220.552 331.204 222.116 335.896C218.38 329.947 214.643 323.998 210.905 318.049C207.97 328.054 205.033 338.059 202.097 348.064C195.157 339.952 188.217 331.84 181.276 323.728C178.874 331.84 176.472 339.952 174.069 348.064C166.596 338.059 159.122 328.054 151.648 318.049C150.76 323.27 149.871 328.491 148.982 333.712C148.714 335.288 148.767 339.809 147.732 341.057C146.879 342.084 144.424 341.574 142.839 341.574Z" fill="#366C34"/>
<path fill-rule="evenodd" clip-rule="evenodd" d="M616.048 403.984C615.628 417.575 615.919 435.218 608.577 447.167C607.392 449.096 603.378 455.103 602.929 449.818C602.49 444.63 603.75 439.492 602.502 434.243C601.834 431.435 599.588 425.301 595.748 427.837C593.791 429.131 593.276 432.323 592.51 434.338C591.378 437.319 590.109 440.253 588.917 443.211C584.753 453.539 580.438 465.863 571.182 472.698C572.394 463.792 575.695 454.283 573.476 445.281C572.72 442.214 570.428 436.611 566.482 438.409C562.637 440.16 560.145 447.975 558.33 451.455C552.828 462.007 547.201 472.359 541.007 482.516C537.891 487.625 534.526 492.294 530.45 496.664C527.901 499.398 524.723 504.018 520.705 504.425C520.705 496.635 523.235 489.109 525.546 481.773C528.031 473.885 530.296 465.93 532.735 458.027C534.851 451.172 536.588 444.369 537.996 437.339C538.58 434.432 539.041 431.421 541.488 429.543C543.687 427.856 547.16 427.053 549.612 425.813C556.051 422.554 562.672 419.038 568.653 414.988C571.109 413.325 573.223 411.177 575.795 409.685C578.725 407.986 581.46 406.556 584.171 404.485C595.867 395.548 606.411 384.554 613.516 371.468C614.669 376.726 616.197 381.863 616.366 387.282C616.538 392.839 616.221 398.431 616.048 403.984ZM519.787 466.454C517.917 463.254 515.067 464.564 512.555 466.107C508.659 468.501 504.752 470.878 500.835 473.242C492.865 478.052 485.042 483.114 477.255 488.221C461.404 498.615 445 507.122 428.288 515.921C412.137 524.423 396.623 534.541 381.49 544.768C377.853 547.226 374.241 549.742 370.749 552.407C367.649 554.774 365.17 558.096 361.907 560.203C358.508 562.397 356.172 560.617 352.922 558.999C348.857 556.976 344.621 555.281 340.466 553.456C323.698 546.092 306.883 538.448 290.572 530.09C274.359 521.783 258.998 512.211 243.463 502.705C236.065 498.177 228.793 493.363 221.495 488.669C213.729 483.675 205.689 479.933 197.543 475.687C193.938 473.807 190.745 471.256 187.043 469.548C183.152 467.752 179.04 466.464 175.555 463.874C173.993 462.713 172.675 461.325 170.889 460.503C169.423 459.829 167.759 459.715 166.311 458.999C163.366 457.542 162.523 454.585 161.953 451.51C158.284 431.768 156.334 411.479 154.208 391.517C153.013 380.292 151.68 369.11 150.029 357.944C149.284 352.91 150.782 349.009 151.568 344.112C152.486 338.392 152.848 332.553 153.463 326.794C156.366 332.24 158.875 337.956 162.568 342.926C165.289 346.589 169.939 351.783 174.951 351.66C182.741 351.47 182.385 337.935 182.698 332.562C186.247 335.771 187.323 340.997 190.268 344.724C192.957 348.126 196.617 352.347 200.746 353.871C209.441 357.079 208.604 340.729 208.126 336.093C207.886 333.767 206.59 330.087 209.666 331.148C212.498 332.124 215.254 336.173 217.635 338.03C221.75 341.24 226.264 343.909 230.486 346.973C235.724 350.776 241.376 353.524 246.716 357.066C250.056 359.282 253.7 359.779 257.341 361.408C262.676 363.795 267.388 367.353 272.466 370.215C282.521 375.879 293.676 380.959 304.675 384.374C308.234 385.479 312.976 388.594 315.675 385.393C317.338 383.424 318.43 380.415 319.841 378.207C321.626 375.411 323.521 372.69 325.49 370.023C332.487 360.548 340.252 351.6 348.876 343.608C358.909 334.311 369.879 325.945 381.614 318.976C386.656 315.982 407.708 302.563 412.336 312.007C408.533 311.767 405.237 313.176 401.985 314.941C401.192 315.371 397.099 318.332 398.057 315.723C396.867 315.948 395.825 317.519 394.925 318.217C393.369 319.424 391.009 320.818 389.207 321.817C387.426 322.804 385.226 323.046 383.602 324.243C383.01 324.681 382.65 325.39 382.085 325.863L380.464 325.876C380.222 326.785 379.979 327.693 379.736 328.603C378.82 325.628 377.513 329.497 375.983 330.753C375.063 331.509 373.606 332.286 372.523 332.774C371.713 333.138 371.588 332.291 370.802 332.935C370.104 333.507 369.658 334.767 368.907 335.484C367.986 336.362 366.806 337.044 365.779 337.794C363.81 339.23 361.728 340.357 359.734 341.718C357.052 343.55 355.645 346.7 353.041 348.615C351.807 349.522 349.89 349.628 349.222 350.209C347.548 351.668 348.1 353.877 344.977 353.975C345.261 354.435 345.432 354.935 345.49 355.475C344.746 355.345 344.085 355.032 343.506 354.537C343.635 357.692 340.572 358.819 338.736 360.762C337.678 361.881 336.359 363.456 335.612 364.803C335.488 365.029 335.251 366.827 335.2 366.852C334.917 366.989 333.191 365.454 333.354 365.582C332.873 368.498 330.088 371.254 328.868 373.953C328.226 375.375 327.573 377.661 326.307 378.661C325.963 378.933 324.904 378.649 324.028 379.594C323.386 380.287 322.645 381.568 322.384 382.487C322.211 383.101 322.42 384.689 322.17 385.057C321.712 385.731 320.999 385.054 320.281 385.552C318.955 386.472 318.922 387.909 316.981 388.099C318.319 391.39 326.394 392.405 329.329 393.341C337.629 395.987 346.336 398.63 354.095 402.683C356.102 403.731 358.001 404.595 358.356 407.01C358.852 410.37 357.161 414.838 356.839 418.232C355.965 427.398 355.786 436.834 355.969 446.038C356.142 454.757 356.421 463.558 356.822 472.266C357.193 480.34 358.801 488.254 359.668 496.271C359.906 498.472 359.747 508.394 363.482 507.895C366.6 507.478 364.631 500.7 364.573 498.757C364.442 494.457 365.336 490.067 365.298 485.729C365.281 483.643 366.181 481.846 366.267 479.851C366.353 477.879 365.385 476.32 365.675 474.276C365.954 472.315 371.678 461.032 366.181 462.354C366.503 460.741 366.784 459.115 367.21 457.526C367.797 458.061 368.271 458.687 368.629 459.4C369.118 455.935 368.955 452.476 369.258 449.009C369.394 447.438 370.023 445.717 369.808 444.134C369.849 443.477 369.767 442.833 369.562 442.202C369.224 441.84 368.805 441.649 368.307 441.63C368.046 440.763 367.978 440.525 368.443 439.674C368.642 439.097 369.038 438.737 369.63 438.594C370.757 438.458 370.886 437.802 370.016 436.625C370.47 434.302 370.528 432.835 370.201 430.517C369.925 428.569 370.938 424.798 369.906 423.064C368.701 421.036 368.102 423.003 367.877 420.193C367.829 419.598 367.791 418.359 368.027 417.766C368.286 417.12 369.063 417.384 369.163 417.155C369.838 415.593 369.883 412.519 367.494 412.786C367.588 411.67 367.681 410.555 367.774 409.439C369.5 411.452 368.897 409.749 369.875 408.63C371.194 407.123 372.483 406.863 374.367 406.267C379.389 404.68 384.227 402.293 389.134 400.356C399.525 396.253 410.109 392.591 420.196 387.743C441.411 377.546 462.205 366.478 483.55 356.55C482.025 353.683 482.973 353.544 484.088 350.852C485.575 351.899 485.262 351.169 486.321 351.105C486.225 350.207 486.5 349.936 487.147 350.292C487.662 350.452 488.19 350.508 488.731 350.461C490.053 350.691 491.132 351.427 492.333 351.707C492.727 352.002 493.161 352.222 493.633 352.371C494.057 352.273 494.419 352.06 494.719 351.732C496.663 352.098 497.318 353.581 497.404 355.729C497.418 356.103 496.289 356.486 496.613 356.988C497.177 357.866 498.697 357.657 499.567 357.769C499.376 358.68 499.186 359.591 498.996 360.502C502.812 358.719 501.816 364.302 502.973 366.136C503.296 366.648 504.014 366.239 504.388 366.832C504.875 367.606 504.729 368.702 505.144 369.473C506.084 371.216 507.024 371.004 507.96 373C512.852 383.424 519.36 393.134 524.055 403.781C526.291 408.849 528.308 414.003 530.642 419.026C532.79 423.649 534.017 427.58 532.486 432.628C528.935 444.339 525.138 456.263 520.485 467.576C520.253 467.202 520.02 466.828 519.787 466.454ZM272.111 553.87C271.778 554.444 271.445 555.019 271.112 555.594C270.372 551.282 272.343 553.282 272.111 553.87ZM256.45 545.797C255.382 545.473 255.843 543.707 255.878 542.952C256.553 543.805 257.215 544.673 257.777 545.61C257.334 545.672 256.892 545.735 256.45 545.797ZM213.525 529.223C214.646 528.586 215.453 528.128 216.724 527.406C215.432 529.957 215.432 529.957 213.525 529.223ZM145.996 304.572C144.283 308.831 149.506 335.126 144.644 335.985C143.946 333.677 143.859 327.322 140.972 326.563C137.39 325.622 137.743 332.164 137.254 334.187C129.901 329.004 126.634 318.996 123.121 311.064C118.643 300.954 115.12 290.438 111.755 279.904C108.878 270.897 106.498 261.732 103.591 252.74C101.764 247.092 99.7951 241.431 98.5667 235.61C98.3001 234.345 97.2503 231.138 98.1423 229.936C99.4388 228.188 104.106 230.19 105.61 230.649C115.366 233.623 125.486 234.903 135.509 236.631C146.646 238.549 157.757 240.533 168.961 242.02C171.761 242.392 174.562 242.744 177.364 243.086C179.182 243.309 181.934 243.086 183.66 243.912C187.155 245.582 187.899 251.975 189.197 255.291C194.039 267.663 199.738 279.645 204.837 291.905C209.43 302.949 212.912 314.7 219.514 324.756C214.59 322.545 208.35 310.854 202.848 317.592C200.482 320.49 201.079 324.308 201.268 327.775C201.542 332.789 201.627 337.839 201.627 342.86C196.243 341.443 192.625 335.251 189.798 330.865C185.937 324.875 183.505 319.229 181.795 312.362C181.054 309.388 179.091 309.314 177.346 307.534C176.225 306.391 175.661 304.849 174.053 306.513C172.032 308.604 173.377 314.395 173.726 316.865C174.554 322.74 177.273 331.783 174.631 337.304C171.064 344.755 161.507 326.007 160.387 323.299C159.818 321.921 149.649 295.488 145.996 304.572ZM139.319 176.881C139.921 176.975 140.523 177.068 141.125 177.161C140.64 177.595 139.63 179.117 138.805 178.715C138.977 178.104 139.148 177.493 139.319 176.881ZM171.214 169.948C171.026 170.158 170.836 170.367 170.647 170.577C169.784 169.484 170.09 167.89 170.09 166.625C171.231 167.324 171.51 168.721 171.214 169.948ZM173.792 182.08V185.654C171.401 184.605 171.354 184.063 173.792 182.08ZM176.696 186.625C175.021 186.159 174.82 185.783 175.056 183.175C175.75 184.636 176.207 185.599 176.696 186.625ZM186.339 213.094C185.636 214.924 181.532 210.563 181.683 209.258C181.826 208.013 182.457 207.641 183.326 208.442C183.614 208.707 183.187 209.665 183.37 209.998C184.033 211.201 185.367 212.186 186.339 213.094ZM186.384 224.12C185.356 226.72 183.523 222.625 186.21 222.513C186.386 223.036 186.444 223.571 186.384 224.12ZM184.39 220.019C183.992 219.481 183.605 218.936 183.229 218.381C184.613 218.664 185.712 220.707 187.172 219.344C186.999 221.422 185.541 221.48 184.39 220.019ZM94.9064 186.238C92.681 183.777 107.192 182.05 108.942 181.628C121.646 178.559 133.64 174.118 145.518 168.669C151.184 166.07 156.822 163.44 162.355 160.558C164.745 159.315 168.02 158.26 170.016 156.393C171.44 155.06 171.383 154.052 173.235 153.258C174.807 152.585 174.885 153.22 175.605 152.003C176.038 151.273 176.527 148.598 176.274 147.806C175.584 145.646 174.565 147.397 173.134 145.909C172.103 144.836 172.353 141.784 172.634 140.52C172.999 141.122 173.209 141.776 173.265 142.48C174.818 141.704 174.192 139.041 175.89 138.605C177.68 138.146 177.495 139.558 177.962 141.002C179.314 138.99 178.23 137.274 177.498 135.31C181.219 134.604 185.218 133.92 188.906 135.174C191.573 136.08 193.857 138.309 196.673 138.74C199.431 139.161 199.961 137.836 201.994 136.492C203.644 135.401 205.062 136.686 205.911 135.861C205.388 138.644 200.885 138.263 201.439 141.74C201.689 143.305 203.582 144.711 204.444 145.928C205.525 147.457 206.388 149.146 207.125 150.869C209.991 157.567 211.216 165.341 212.419 172.505C215.386 190.187 215.762 208.219 218.553 225.958C219.883 234.407 221.217 242.862 221.908 251.394C222.081 253.527 223.367 258.366 222.315 260.418C221.425 262.151 219.445 262.156 217.708 262.575C214.308 263.394 211.115 264.506 207.853 265.738C204.93 266.842 204.08 267.52 202.203 264.733C200.388 262.037 199.49 258.823 198.191 255.867C196.537 252.1 194.538 248.466 192.619 244.833C196.389 244.833 198.558 242.772 198.458 238.892C198.349 234.594 194.86 233.574 193.422 230.042C192.023 231.883 191.905 231.935 190.908 230.187C189.768 228.189 188.998 224.533 188.301 222.267C188.8 222.806 189.298 223.346 189.797 223.884C191.055 222.131 189.085 219.366 188.426 217.714C187.409 215.164 187.229 212.407 186.264 209.864C185.738 208.476 184.519 207.383 184.221 205.935C184.021 204.966 184.82 204.043 184.631 203.059C184.301 201.346 182.388 199.508 181.793 197.766C180.877 195.085 179.884 192.726 178.748 190.114C177.211 186.58 177.569 182.871 177.288 179.11C176.996 175.209 175.763 171.478 175.327 167.595C175.026 164.912 175.969 161.534 173.965 159.385C173.73 162.957 174.741 162.902 171.428 163.544C167.657 164.275 164.921 167.122 161.355 167.971C160.62 168.146 160.084 164.893 160.371 169.331C158.661 168.051 155.01 169.64 156.372 170.399C155.34 171.518 153.307 170.744 152.967 172.42C149.459 168.965 143.833 180.725 139.656 174.59C138.966 178.748 135.994 181.206 132.005 181.756C129.999 182.032 128.763 182.709 126.982 183.318C126.621 183.441 126.488 183.967 126.061 184.109C125.407 184.325 124.448 183.673 123.977 183.8C123.019 184.058 121.953 185.336 120.615 185.589C119.08 185.881 117.407 185.747 115.871 185.567C113.951 185.341 113.106 185.111 111.225 185.752C109.534 186.328 107.723 187.944 106.153 186.185C103.688 190.506 97.8092 189.45 94.9064 186.238ZM208.893 134.091C207.027 133.865 208.323 132.239 209.187 131.751C211.535 130.426 210.908 134.336 208.893 134.091ZM105.576 149.598C116.527 133.593 135.259 122.597 151.741 113.344C160.743 108.29 169.932 103.392 179.385 99.2553C184.085 97.1997 188.839 95.2236 193.638 93.4179C196.2 92.4534 198.794 91.5765 201.389 90.7036C202.107 90.4627 203.412 89.7229 204.163 89.7951C204.034 89.7821 206.03 90.3321 205.638 90.5049C206.924 89.9378 207.535 88.459 209.047 87.8677C210.747 87.2025 212.911 86.9275 214.731 86.8675C216.342 86.8139 217.736 87.488 219.27 87.5407C220.278 87.5748 221.135 87.0897 222.122 87.0183C222.628 86.9826 222.583 87.7484 222.887 87.793C223.019 87.8125 224.365 87.3006 224.377 87.3096C224.868 87.6284 225.302 88.8727 225.744 89.3586C227.014 90.7523 228.879 91.7233 230.572 92.4566C232.634 93.3489 237.662 94.2461 235.331 97.5477C236.987 97.3068 237.757 98.8221 235.685 99.2058C234.562 99.4143 234.082 98.3727 233.249 97.6621C231.323 96.0234 226.648 93.6904 223.874 93.7959C222.313 93.8551 221.107 95.0549 219.668 95.4905C218.252 95.9188 217.55 95.2544 216.307 95.3599C214.855 95.4824 213.919 96.7276 212.535 96.949C211.238 97.1567 210.516 96.2611 209.357 96.3236C207.98 96.3974 206.646 97.6093 205.331 98.0166C203.239 98.6639 201.703 99.1052 199.661 100.178C195.704 102.259 191.284 103.049 187.206 104.84C183.945 106.272 180.248 107.026 177.231 108.609C173.875 110.369 170.505 112.122 167.219 114.034C164.846 115.415 160.02 115.89 157.403 115.539C157.366 120.421 154.994 116.999 152.603 119.137C153.169 119.642 153.811 120.014 154.528 120.251C151.937 121.3 149.543 122.604 147.033 123.809C144.439 125.055 141.672 125.329 139.968 127.685C138.398 129.857 138.93 128.737 136.588 129.592C135.513 129.984 134.579 131.182 133.804 131.985C132.473 133.368 132.179 135.461 131.419 132.62C131.197 132.966 130.324 135.172 130.154 135.228C129.202 134.204 129.065 135.418 128.533 135.852C128.813 136.795 128.413 137.413 127.332 137.706C126.785 138.118 126.231 138.522 125.671 138.917C123.64 140.344 121.055 141.568 119.625 143.694C118.57 143.064 118.179 141.976 118.822 140.866C116.806 142.748 114.401 144.681 113.856 147.578C113.605 147.333 113.313 147.156 112.982 147.047C112.163 147.607 113.229 149.275 113.748 149.65C116.011 148.759 113.183 149.082 114.703 149.226C115.137 149.266 115.582 149.595 116.06 149.601C117.462 149.619 118.779 149.551 120.169 149.335C123.235 148.856 126.247 147.964 129.215 147.071C132.447 146.097 135.68 145.125 138.84 143.931C141.443 142.948 144.002 141.852 146.561 140.76C147.583 140.324 148.604 139.882 149.627 139.448C151.57 138.626 152.595 137.274 152.324 139.59C153.872 139.329 155.213 137.113 156.402 136.209C158.074 134.937 159.954 133.989 161.935 133.34C162.737 133.077 163.327 132.743 164.156 132.741C164.563 132.74 164.807 133.902 165.063 133.838C166.841 133.402 166.03 132.404 166.829 130.967C168.577 127.825 173.286 126.087 176.178 124.303C178.013 123.169 179.316 121.645 181.01 120.39C181.803 119.804 182.379 119.544 183.209 119.296C183.845 119.105 184.625 120.585 185.038 119.098C183.558 118.486 182.339 117.73 180.916 117.283C179.909 116.966 181.117 115.882 179.522 116.527C178.881 116.787 178.661 118.043 178.425 118.568C176.644 116.956 171.634 118.627 169.52 119.302C169.374 119.348 168.722 118.999 168.414 119.02C167.194 119.103 166.344 120.767 165.541 121.484C163.405 123.389 161.089 124.186 158.459 125.274C159.159 121.4 164.302 119.813 167.304 118.33C171.692 116.161 175.778 113.392 180.583 112.226C183.783 111.448 188.023 110.822 189.405 114.591C190.232 116.85 190.336 122.463 187.538 123.505C187.242 122.451 188.189 121.549 188.474 120.634C185.688 121.712 185.229 125.102 183.113 126.871C181.924 127.865 181.499 128.183 180.924 129.144C180.353 130.098 180.079 130.988 178.741 132.003C176.554 127.297 176.924 133.743 175.815 134.551C176.261 134.226 174.008 135.176 174.277 135.075C174.172 135.114 173.191 133.503 172.554 133.537C171.395 133.599 171.618 134.891 171.06 135.542C169.168 137.743 166.723 139.187 163.677 138.841C163.606 140.407 164.083 142.279 161.972 142.422L161.695 138.949C160.546 140.127 159.033 141.245 158.098 142.609C157.033 144.161 157.147 145.116 155.381 146.151C153.536 147.232 149.611 149.362 147.415 149.546C147.958 148.766 147.862 148.061 147.129 147.433C146.024 148.587 144.394 148.7 143.218 149.742C147.299 151.469 140.083 151.38 139.168 151.575C138.555 151.707 138.02 152.272 137.4 152.399C136.576 152.569 136.469 151.691 135.76 151.969C134.722 152.377 135.143 153.526 134.057 154.104C133.277 154.519 131.955 154.513 131.074 154.907C128.977 155.848 124.51 157.932 123.092 155.405C122.374 159.741 115.038 157.102 112.323 156.81C108.604 156.41 102.126 154.641 105.576 149.598ZM121.196 105.227C121.722 104.772 122.249 104.805 122.776 105.328C122.042 101.403 127.716 99.4978 130.191 97.8292C133.474 95.6162 137.339 91.3226 141.635 91.6624C140.902 92.2124 140.171 92.7624 139.439 93.3124C140.484 93.4495 141.529 93.5866 142.572 93.7237C141.983 94.5998 141.394 95.4751 140.804 96.3504C139.84 90.9673 134.809 97.7635 133.353 98.7539C131.887 99.7509 130.425 100.494 129.122 101.71C127.831 102.915 126.666 105.084 124.532 104C124.337 107.074 121.897 106.24 120.21 107.943C120.14 106.875 120.744 106.12 121.196 105.227ZM143.485 89.8802C148.678 87.9098 153.199 84.2668 158.093 81.6644C162.767 79.1781 167.536 76.9457 172.287 74.6265C174.698 73.4494 179.113 70.4058 181.869 71.9568C185.587 74.0513 180.468 74.7271 179.139 75.4523C178.647 72.227 176.925 75.1489 177.954 76.9433C175.117 75.7021 168.929 80.558 166.222 81.8972C165.61 82.2006 165.884 82.3759 165.188 82.7328C165.016 82.8204 163.24 83.23 162.732 83.4028C160.184 84.2668 158.504 83.5805 157.407 86.6963C157.177 85.963 156.947 85.2288 156.717 84.4947C155.122 88.1232 150.273 89.7115 147.173 91.8571C146.373 92.4104 144.091 94.556 143.077 94.1123C141.666 93.4941 142.233 90.3548 143.485 89.8802ZM237.166 100.82C239.358 100.967 237.244 102.003 237.847 102.687C237.779 102.61 239.167 103.81 238.985 103.481C239.23 103.924 239.819 103.907 240.12 104.808C241.157 107.904 236.629 111.104 235.102 112.861C232.132 116.278 230.416 120.606 227.322 123.914C225.925 125.408 224.534 126.44 222.597 126.997C221.242 127.388 219.807 126.97 218.561 128.29C217.558 129.354 217.785 129.958 216.676 130.524C214.722 131.521 213.862 130.646 211.961 132.801C210.325 128.295 215.025 128.303 217.478 125.785C220.864 122.309 224.574 118.802 227.749 115.083C230.569 111.779 231.699 108.883 233.038 104.869C233.46 103.603 233.92 100.89 235.083 100.096C236.895 98.8594 235.808 100.728 237.166 100.82ZM247.948 217.86C253.698 211.344 260.831 205.494 268.564 201.569C271.327 200.166 275.262 198.324 278.126 200.485C280.935 202.602 280.33 206.826 279.198 209.699C278.113 209.267 279.137 205.229 278.574 204.232C277.346 202.054 274.695 203.21 272.892 203.94C270.78 204.795 268.895 205.74 267.222 207.291C266.543 207.92 265.243 208.484 264.808 208.916C264.155 208.641 263.77 208.842 263.654 209.517C263.789 209.93 263.773 210.337 263.605 210.738C263.51 210.866 262.66 210.343 262.54 210.448C261.989 210.926 261.473 211.488 260.931 211.931C259.842 212.823 258.917 213.245 257.915 214.488C255.98 216.89 253.421 218.297 251.478 220.585C251.039 221.103 250.513 222.429 250.414 222.545C249.432 223.707 247.975 224.626 246.867 225.856C244.95 227.98 242.904 229.406 240.693 231.228C239.741 232.012 238.631 232.856 237.997 233.947C237.709 234.444 237.546 237.169 237.536 237.181C235.367 239.588 235.789 234.749 235.953 234.142C237.714 227.613 243.667 222.711 247.948 217.86ZM236.111 262.011C236.381 263.036 236.603 263.884 236.877 264.925C235.158 263.496 235.158 263.496 236.111 262.011ZM234.254 265.369C233.623 266.014 232.987 266.655 232.348 267.292C230.941 265.785 234.512 265.111 234.254 265.369ZM233.361 239.442C232.689 242.198 230.226 245.539 228.534 247.715C228.72 247.475 227.089 247.958 226.903 248.067C226.3 248.421 227.744 250.713 225.655 249.689C224.913 250.114 226.373 251.845 225.366 252.62C222.454 245.899 230.404 240.076 233.482 235.087C234.988 236.487 233.739 237.896 233.361 239.442ZM214.449 275.778C216.572 276.332 217.677 275.984 219.11 273.871C219.972 272.603 220.286 270.356 222.257 272.254L222.605 269.813C225.418 270.982 225.181 275.207 226.411 277.548C227.009 274.899 228.425 267.5 232.763 268.687C237.633 270.02 229.528 278.503 228.775 280.582C227.12 277.979 227.771 280.4 226.508 280.766C225.425 281.082 223.732 280.274 222.416 280.347C218.41 280.568 214.891 282.393 211.233 283.938C210.306 281.408 209.38 278.878 208.454 276.348C210.608 276.516 215.062 270.708 215.695 274.929C214.097 274.648 213.647 274.719 212.869 276.192C213.366 275.937 213.893 275.799 214.449 275.778ZM223.441 308.803C223.434 308.783 227.584 309.042 227.954 308.905C230.793 307.855 229.744 304.592 230.324 302.286C231.495 303.376 230.874 305.366 231.235 306.777C231.659 308.435 232.886 309.848 232.999 311.621C233.258 315.628 230.013 314.739 227.553 316.035C225.451 317.143 225.217 318.537 223.442 315.551C222.962 314.743 221.929 312.638 222.034 311.604C222.138 310.58 223.739 309.729 223.441 308.803ZM226.785 326.14L225.637 324.838C229.056 325.898 227.04 324.304 227.826 322.125C230.451 323.895 232.591 325.714 234.668 322.17L238.255 336.828C235.845 337.403 232.737 333.631 231.084 332.336C230.129 331.587 224.832 328.703 228.013 327.863C227.603 327.289 227.194 326.714 226.785 326.14ZM250.203 280.111C248.211 282.03 246.205 283.104 244.037 284.612C242.135 285.935 242.79 287.455 241.141 288.931C240.046 289.913 237.48 290.912 236.127 291.661C233.718 292.994 231.56 293.248 229.081 291.756C229.756 297.257 226.037 297.687 221.407 298.777C219.2 299.297 217.893 300.091 216.302 298.043C215.212 296.641 214.785 294.103 216.141 292.82C218.294 290.782 224.031 291.486 226.793 290.204C228.89 289.232 231.026 283.756 233.612 285.749C232.277 283.595 233.832 283.015 234.992 281.479C236.263 279.796 237.043 277.828 238.358 276.159C240.857 272.985 244.693 269.793 248.241 267.88C251.363 266.197 253.002 267.388 253.47 270.923C253.705 272.701 253.696 275.348 252.714 276.925C252.401 277.428 251.367 277.434 251.054 277.906C250.509 278.731 251.009 279.334 250.203 280.111ZM286.841 237.448C289.332 239.401 289.089 243.506 289.482 246.301C290.035 250.241 289.634 254.054 289.575 258.067C289.512 262.271 287.476 265.01 286.517 268.951C285.452 273.334 284.077 275.656 281.688 279.335C284.279 279.748 280.423 287.587 279.787 288.602C279.096 289.703 273.53 294.78 275.917 294.78C274.6 296.539 273.167 298.343 271.855 300.053C271.338 300.727 270.433 300.991 270.026 301.467C269.197 302.433 269.147 303.294 268.553 304.422C267.653 306.133 267.356 305.676 266.172 306.917C265.354 307.774 264.818 308.906 264.015 309.728C261.426 312.375 261.096 310.206 259.649 308.168C259.428 308.714 259.034 309.056 258.468 309.195C258.014 306.888 261.134 304.557 262.446 303.156C264.594 300.858 266.558 298.327 268.457 295.815C272.525 290.432 276.181 284.713 279.065 278.587C282.134 272.067 284.585 265.011 285.858 257.899C286.829 252.478 287.751 243.178 280.6 241.799C275.399 240.796 269.666 243.997 265.378 246.589C262.765 248.168 260.138 249.737 257.649 251.513C254.947 253.439 252.612 256.164 249.68 257.71C251.284 256.865 245.991 259.408 246.802 258.693C246.422 259.027 246.75 260.048 246.499 260.509C246.172 261.109 245.037 261.701 244.528 262.089C243.182 263.112 241.033 264.16 240.421 265.85C231.888 259.683 248.857 248.736 253.207 245.947C261.836 240.417 276.849 229.612 286.841 237.448ZM309.858 177.473C309.777 173.033 313.347 166.971 315.758 163.35C316.937 161.577 318.822 161.648 319.513 159.557C319.911 158.353 319.389 157.091 319.507 155.883C319.667 154.248 320.367 152.937 321.174 151.532C328.472 138.831 337.338 127.59 346.782 116.509C351.438 111.046 355.853 105.373 360.875 100.242C362.973 98.0985 368.611 90.3937 371.837 91.1644C373.545 91.5724 374.538 94.2129 375.31 95.5603C376.584 97.7886 377.987 99.8758 379.536 101.925C383.626 107.335 388.343 112.084 393.914 115.918C397.393 118.314 400.907 120.643 404.309 123.154C407.109 125.22 411.343 127.582 413.343 130.483C415.343 133.385 412.406 135.842 410.8 138.251C408.305 141.998 406.01 145.88 403.504 149.623C402.509 148.898 402.766 147.425 402.084 146.496C401.478 145.673 400.622 145.338 399.786 144.829C398.184 143.857 396.611 142.667 395.164 144.297C392.631 147.149 396.114 153.891 399.868 153.151C400.31 155.966 392.814 160.602 390.935 162.151C385.17 166.903 379.222 171.035 371.606 171.465C368.524 171.638 365.317 171.402 362.388 170.357C360.985 169.856 359.434 169.169 358.359 168.078C357.071 166.772 356.743 164.828 355.493 163.535C354.41 162.414 352.922 162.241 351.839 161.115C350.755 159.988 350.219 158.208 349.78 156.749C348.92 153.898 348.757 150.89 347.931 148.033C347.434 146.314 347.025 144.016 345.404 145.667C343.048 148.067 344.231 155.612 344.834 158.486C345.697 162.588 347.719 165.894 349.837 169.423C352.133 173.251 352.981 176.802 353.393 181.231C354.163 189.522 356.512 197.478 360.167 204.938C361.705 208.079 363.548 211.033 365.208 214.101C365.984 215.533 367.723 220.418 369.833 220.392C373.204 220.35 368.402 210.391 367.736 208.719C364.043 199.459 360.515 189.727 359.724 179.7C365.018 181.082 370.788 182.393 376.27 181.517C372.732 189.533 376.428 197.515 375.976 205.766C375.75 209.904 375.587 213.722 375.671 217.848C375.745 221.465 374.132 225.082 372.738 228.353C369.969 234.85 366.483 242.865 361.341 247.842C357.041 252.002 351.29 252.328 345.673 251.369C332.894 249.189 324.498 239.238 319.135 227.936C315.689 220.676 313.055 212.926 311.42 205.041C309.527 195.916 310.027 186.729 309.858 177.473ZM326.454 115.976C314.529 107.235 331.858 97.3092 340.678 98.6607C342.747 98.977 346.554 99.8434 346.36 102.579C346.202 104.814 342.521 107.306 341.107 108.686C337.077 112.624 332.975 120.754 326.454 115.976ZM413.206 310.19C412.796 309.819 409.459 310.73 410.781 308.73C411.88 307.068 414.926 309.151 416.032 309.579C415.12 310.217 414.327 311.206 413.206 310.19ZM363.55 415.905C362.525 416.033 361.454 413.233 365.148 415.325C364.616 415.518 364.083 415.712 363.55 415.905ZM363.444 461.544C363.572 462.798 363.95 463.626 363.07 464.538C362.326 463.61 362.23 462.3 363.444 461.544ZM364.944 480.401C364.835 481.084 364.726 481.767 364.619 482.449C363.765 482.012 362.913 481.574 362.06 481.136C363.021 480.891 363.983 480.646 364.944 480.401ZM365.988 464.5C367.26 464.981 366.668 463.441 367.592 463.224C367.922 464.828 367.515 466.201 366.606 467.525C366.519 467.211 366.053 464.523 365.988 464.5ZM398.487 350.709C396.703 350.478 396.433 352.388 395.103 353.129C394.245 353.607 391.631 353.248 391.143 354.164C391.787 354.352 392.432 354.541 393.076 354.729C391.601 355.534 390.127 356.339 388.653 357.144C392.199 357.144 395.894 355.428 399.415 355.932C400.904 356.145 401.996 356.655 402.929 357.881C403.496 358.626 403.994 359.824 404.086 360.736C404.184 361.722 403.425 362.404 403.56 362.874C405.147 362.918 404.959 365.555 404.603 366.63C403.83 368.961 400.761 372.61 398.01 371.132C399.161 372.786 398.868 373.731 397.166 374.69C397.321 374.143 397.434 373.187 396.565 373.282C396.341 374.199 396.427 375.652 395.688 376.343C394.861 377.117 394.122 376.213 393.331 376.716C392.393 377.313 392.675 378.25 391.938 378.897C390.962 379.752 390.823 379.144 389.657 379.311C387.891 379.564 389.018 378.453 387.604 379.901C387.115 380.401 387.197 381.701 386.404 382.433C384.881 383.837 380.817 385.301 379.358 383.5C375.85 389.132 365.335 390.483 360.441 386.037C352.635 378.947 367.19 364.526 371.995 359.956C376.818 355.369 382.175 351.407 387.596 347.583C390.676 345.411 393.836 343.439 397.064 341.503C399.054 340.308 401.554 338.127 404.001 338.336C406.195 338.525 408.069 340.249 410.38 340.591C412.05 340.837 415.296 341.245 413.188 343.54C412.202 344.613 408.331 346.347 407.013 346.608C406.239 346.761 405.423 346.468 404.656 346.627C403.357 346.897 402.465 348.007 401.051 347.866C401.499 349.991 400.682 350.991 398.487 350.709ZM421.589 271.836C421.59 273.498 418.595 273.084 417.97 272.519C416.94 271.59 416.904 268.813 416.522 267.55C418.263 267.993 421.587 269.617 421.589 271.836ZM397.463 217.001C403.754 211.763 410.369 206.96 417.361 202.731C419.865 201.216 423.4 198.161 426.511 198.543C427.815 198.703 430.512 200.221 429.53 201.895C429.346 202.208 427.894 202.333 427.446 202.561C426.938 202.818 426.539 203.527 426.067 203.877C422.8 206.305 418.874 207.797 415.597 210.283C412.903 212.325 410.391 214.609 407.491 216.361C404.709 218.041 401.803 219.105 399.162 220.966C399.214 220.928 395.726 222.199 396.41 222.43C393.349 221.392 396.582 217.735 397.463 217.001ZM439.406 215.05C443.144 213.541 446.8 211.71 450.713 210.696C452.665 210.19 454.669 209.809 456.691 210.037C457.034 209.428 457.491 209.293 458.063 209.633C458.509 210.328 459.097 210.861 459.827 211.233C460.942 212.101 465.046 213.236 464.226 215.153C463.684 216.421 459.569 216.526 458.439 216.811C455.035 217.67 451.861 219.602 448.354 220.077C448.025 220.121 446.951 219.717 446.939 219.72C445.57 220.022 444.431 221.461 443.256 222.15C440.725 223.634 437.09 223.883 435.273 226.444C441.157 230.484 446.262 226.477 451.435 223.426C454.534 221.599 457.86 220.281 461.247 219.11C463.017 218.498 464.802 217.862 466.596 217.325C467.339 217.051 468.102 216.854 468.885 216.733C469.614 216.586 470.135 216.855 470.45 217.539C472.618 217.466 472.804 216.088 474.109 218.659C475.949 222.283 473.134 222.099 470.488 222.544C466.819 223.161 463.087 224.55 459.472 225.47C458.638 225.683 451.326 227.4 451.317 227.461C450.986 229.799 471.971 227.634 473.773 227.283C476.952 226.664 480.362 224.904 483.653 225.328C486.18 225.654 491.937 229.41 487.906 231.905C487.112 228.056 484.388 231.235 482.966 232.533C481.071 234.262 478.356 234.096 475.758 234.773C472.204 235.698 463.106 239.168 460.582 234.744C461.381 238.621 446.879 236.651 444.885 236.523C442.941 236.397 440.432 236.816 438.554 236.254C437.328 235.889 436.647 235.081 435.494 234.9C435.211 235.208 434.872 235.418 434.478 235.529C433.894 235.23 433.366 234.849 432.895 234.387C429.012 232.579 423.002 231.579 425.161 225.819C427.196 220.387 434.47 217.044 439.406 215.05ZM475.809 218.407C475.906 218.069 476.003 217.731 476.099 217.392C476.111 218.429 478.553 218.872 478.272 220.216C477.646 223.193 474.827 218.72 474.586 218.233C474.994 218.291 475.401 218.349 475.809 218.407ZM490.721 223.352C491.004 224.572 494.252 227.167 493.447 227.766C492.167 226.003 488.627 226.803 490.721 223.352ZM435.934 334.6C437.123 332.211 440.718 336.279 440.339 332.2C442.293 332.38 441.073 333.886 443.415 333.224C444.293 332.976 444.886 331.99 445.956 331.763C446.241 331.702 447.474 331.801 447.899 331.788C449.307 331.745 454.828 331.586 451.028 329.714C453.155 328.29 453.417 329.012 455.336 330.318C454.844 327.62 457.668 329.151 458.983 329.488C458.045 327.949 460.373 326.312 461.128 325.272C460.857 326.874 461 328.668 463.288 327.643C463.858 327.388 463.73 326.256 464.183 326.071C465.011 325.733 465.474 326.348 465.771 326.314C466.063 326.28 466.679 326.447 467.293 326.212C468.091 325.908 467.706 324.823 468.718 324.661C469.377 324.557 469.859 325.538 470.663 325.546C471.077 325.55 471.766 325.125 472.08 325.148C472.135 325.152 472.528 324.192 473.011 324.168C473.718 324.133 474.005 326.05 474.263 326.422C475.499 328.199 477.143 329.357 479.04 330.305C475.609 333.491 468.689 333.154 464.375 334.228C462.038 334.81 460.045 335.65 457.907 336.732C457.391 337.072 456.947 337.489 456.575 337.983C456.273 337.779 455.969 337.575 455.666 337.372C454.495 337.445 453.387 336.858 452.068 337.083C447.994 337.779 444.805 340.871 440.665 341.559C438.804 341.869 437.276 342.302 436.064 340.668C435.001 339.235 435.177 336.123 435.934 334.6ZM430.349 315.559C431.272 316.35 430.161 318.924 431.949 318.645C433.217 318.446 432.964 316.453 433.96 316.03C435.269 315.476 436.058 316.791 437.288 316.669C439.581 316.441 439.45 314.413 437.513 313.522C439.527 312.983 440.172 315.396 441.955 315.374C444.298 315.345 443.739 312.546 445.732 312.082C446.595 311.881 446.307 313.165 446.867 313.325C447.988 313.644 448.768 313.096 449.76 312.614C450.647 312.183 451.279 311.351 452.249 311.069C452.69 310.94 453.811 311.176 454.134 310.937C454.787 310.455 455.372 308.578 456.014 308.329C455.883 308.38 457.989 309.449 458.29 309.549C458.106 310.342 457.677 310.436 457.004 309.833C457.004 311.621 461.912 312.178 460.905 309.968C463.559 311.081 461.582 311.654 461.317 313.207C461.212 313.832 460.853 313.815 460.96 314.475C461.008 314.779 462.399 314.517 462.382 314.932C462.265 317.601 453.865 318.422 452.274 318.658C448.98 319.145 445.862 319.965 442.686 320.975C440.322 321.727 436.246 323.881 433.73 323.747C430.111 323.555 429.639 318.772 430.349 315.559ZM422.263 288.317C421.381 285.347 424.212 279.213 427.898 279.98C428.805 280.168 429.028 280.929 429.731 281.266C430.713 281.738 432.31 281.49 433.161 281.978C435.069 283.072 434.108 285.86 436.02 286.867C433.001 287.609 423.666 293.037 422.263 288.317ZM425.757 299.856C427.058 299.147 429.166 299.057 430.053 297.695C430.495 298.004 431.33 299.886 432.122 299.598C432.492 299.464 432.874 298.444 432.847 298.445C433.553 298.425 433.693 297.457 434.772 297.566C435.761 297.666 436.87 298.872 437.751 299.321C437.6 296.333 438.356 296.047 440.748 294.447C441.272 294.097 441.71 292.781 442.194 292.249C441.731 295.385 442.898 295.402 445.37 295.873C448.469 296.464 450.4 298.15 451.642 301.183C449.001 300.661 445.594 301.289 444.553 304.165C442.445 300.264 434.785 305.647 432.307 306.749C430.467 307.568 428.328 308.668 426.785 306.76C425.699 305.417 426.322 303.801 426.345 302.608C426.351 302.233 426.733 302.211 426.698 301.653C426.653 300.941 425.738 300.656 425.757 299.856ZM453.953 361.199C453.255 361.467 449.665 361.617 449.642 360.412C449.623 359.348 455.978 360.42 453.953 361.199ZM448.121 357.302C445.405 358.998 442.366 353.021 441.368 351.3C444.217 351.669 445.608 349.255 447.286 347.42C448.883 350.964 451.308 349.091 453.858 347.908C456.866 346.512 460.162 346.501 463.243 345.381C464.205 345.031 465.092 344.511 466.03 344.111C466.786 343.825 467.54 343.531 468.29 343.23C468.822 342.744 469.012 342.144 468.857 341.434C468.605 340.836 468.777 340.459 469.373 340.304C470.083 340.518 470.807 340.643 471.547 340.676C472.734 340.437 474.441 339.303 473.007 338.079C474.543 336.666 476.081 338.071 477.56 338.69C477.209 337.675 476.859 336.66 476.507 335.646C477.241 335.961 479.419 339.044 479.641 339.027C481.049 338.92 480.902 337.006 481.711 336.234C482.178 336.817 482.312 341.166 484.147 339.701C484.932 339.075 483.242 336.941 482.826 336.455C484.925 336.935 486.758 339.474 487.326 341.446C486.329 341.592 485.407 341.389 484.561 340.836C484.02 343.581 489.036 342.469 489.848 343.903C491.438 346.71 481.094 348.66 479.746 348.921C477.049 349.442 473.866 349.636 471.394 350.847C469.025 352.006 468.464 352.338 465.697 352.555C462.538 352.803 459.456 353.858 456.4 354.679C453.747 355.391 450.473 355.834 448.121 357.302ZM505.858 256.802C508.352 255.893 516.754 251.174 518.893 253.273C518.667 253.05 520.435 256.751 520.417 256.518C520.569 258.443 520.522 259.218 518.183 260.14C516.508 260.8 515.049 259.397 513.542 259.954C511.887 260.567 513.045 261.651 512.193 262.407C511.259 263.237 509.459 263.596 508.297 263.959C505.452 264.849 502.586 265.593 499.755 266.552C493.995 268.503 487.895 270.318 481.976 271.698C477.552 272.729 470.044 275.292 465.968 272.265C465.57 273.986 464.598 273.75 463.248 274.001C462.189 274.197 460.273 274.729 459.332 274.756C457.764 274.803 453.407 274.386 454.007 272.16C453.842 272.773 457.396 270.674 456.781 270.543C458.29 270.865 457.801 270.095 459.038 269.667C460.653 269.108 462.341 269.138 463.99 268.546C468.147 267.053 471.633 265.116 476.021 264.181C486.042 262.045 496.189 260.327 505.858 256.802ZM104.108 486.851C103.296 486.873 102.664 484.536 105.135 486.205C104.793 486.421 104.451 486.636 104.108 486.851ZM84.5931 483.827C83.4888 484.114 83.0484 483.489 83.2734 481.955C84.8133 481.338 85.2529 481.962 84.5931 483.827ZM69.5272 480.697C69.2445 479.329 70.2455 479.021 71.1528 478.407C71.0615 480.219 71.0615 480.219 69.5272 480.697ZM31.6198 469.442C30.0927 469.102 28.058 467.589 27.708 470.129C27.4526 469.541 26.1489 466.775 26.7086 466.135C27.0009 465.8 28.1076 467.349 27.9899 467.196C29.3264 464.457 31.6302 467.762 32.9179 468.74C32.4855 468.974 32.0522 469.209 31.6198 469.442ZM428.66 166.787C429.187 165.658 429.809 165.3 430.523 165.713C429.401 168.354 425.599 169.786 428.66 166.787ZM455.078 141.994C456.019 143.783 454.603 144.539 453.591 146.026C454.183 144.422 454.593 143.311 455.078 141.994ZM569.893 316.6C573.29 316.599 580.526 314.782 582.574 318.716C583.93 316.043 585.471 321.055 586.647 321.859C586.779 321.95 587.626 321.294 588.02 321.536C588.614 321.9 589.127 322.892 589.467 323.482C590.493 325.26 590.934 327.374 591.503 329.33C585.57 329.33 579.486 327.931 573.558 327.423C569.667 327.088 565.852 327.079 561.956 327.291C561.181 327.333 559.644 327.075 558.982 327.222C558.309 327.372 557.089 328.76 556.348 328.537C557.5 330.728 572.258 336.033 573.384 333.606C572.049 332.789 569.087 332.161 569.089 330.185C569.091 327.971 571.869 327.975 573.34 328.04C576.559 328.183 581.95 329.268 583.27 332.659C583.835 334.112 584.009 337.773 583.388 339.176C582.987 340.082 582.307 341.172 581.231 341.356C580.79 341.431 580.154 340.836 580.087 340.851C577.878 341.326 573.79 343.122 571.382 340.589C569.645 342.866 561.278 340.379 558.716 339.52C554.237 338.018 548.068 335.955 545.347 331.72C542.031 326.559 548.774 322.198 552.646 320.1C557.938 317.233 563.985 316.602 569.893 316.6ZM592.5 328.532C593.542 328.83 594.583 329.128 595.624 329.426C595.345 331.276 591.237 329.812 592.5 328.532ZM623.978 395.762C624.298 388.352 622.183 381.826 620.962 374.659C620.659 372.882 620.968 369.776 619.636 368.315C618.363 366.918 615.523 368.054 615.41 365.585C614.157 367.071 614.283 367.382 612.739 365.672C613.021 366.405 613.061 367.151 612.861 367.91C611.903 367.354 608.429 365.506 608.721 368.033C605.865 367.393 606.692 365.583 605.062 364.201C604.831 364.005 603.901 364.702 603.539 364.405C602.884 363.867 602.559 363.379 602.007 362.686C601.304 363.546 600.348 364.167 599.49 364.847C598.991 363.746 598.02 362.938 596.852 362.671C597.944 364.984 600.642 367.981 596.941 369.297C594.732 370.083 591.113 369.12 588.773 369.303C580.101 369.984 570.602 368.069 562.217 365.976C553.603 363.827 544.892 360.792 537.145 356.356C535.494 355.41 534.454 354.291 533.031 353.118C531.649 351.977 530.644 351.797 528.983 351.068C525.992 349.756 523.256 347.651 520.981 345.305C516.089 340.26 511.544 333.662 512.906 326.276C514.264 318.915 519.26 313.162 524.605 308.314C530.917 302.589 538.045 297.808 545.609 293.954C548.992 292.232 557.643 285.76 560.985 289.547C563.121 291.966 561.92 295.052 559.002 295.59C558.282 295.723 557.53 295.234 556.802 295.569C555.753 296.053 556.122 296.624 555.689 297.027C554.937 297.727 554.138 298.819 553.014 299.426C549.093 301.544 545.302 303.222 541.553 305.802C539.825 306.99 538.162 307.501 536.639 308.539C535.124 309.57 534.78 311.276 532.742 310.224C533.468 313.225 529.112 316.439 527.404 318.278C524.759 321.125 521.588 324.759 522.822 328.972C525.238 337.219 536.154 343.482 543.139 347.107C551.856 351.63 561.47 355.231 571.176 356.721C576.001 357.462 580.989 357.92 585.85 358.389C589.635 358.755 595.444 357.416 598.168 360.869C598.252 356.842 610.667 357.198 613.31 356.682C608.012 338.337 597.609 322.026 586.488 306.787C581.029 299.306 575.669 291.613 569.448 284.755C562.636 277.247 554.854 270.538 547.461 263.63C532.959 250.08 516.557 237.988 499.867 227.335C483.216 216.708 465.971 206.248 447.728 198.671C426.893 190.017 404.957 184.325 382.997 179.477C385.976 175.632 390.821 173.756 394.636 170.943C395.971 169.958 397.776 167.595 399.511 167.272C401.389 166.921 402.868 168.969 404.206 169.997C408.044 172.946 410.698 171.694 415.095 171.516C417.725 171.41 423.955 172.893 425.064 169.289C426.539 171.278 424.4 172.873 423.305 174.332C424.102 175.458 424.744 174.289 425.531 174.113C425.774 173.91 426.016 173.705 426.258 173.502C426.649 172.929 427.002 172.926 427.315 173.49C427.784 174.206 428.256 174.048 428.732 173.015C428.863 172.932 428.992 172.849 429.123 172.766C429.691 172.459 430.24 171.974 430.768 171.592C434.764 168.7 438.324 166.237 442.734 164.106C446.437 162.319 444.446 158.898 446.887 156.482C447.44 155.935 448.37 156.209 448.961 155.746C449.539 155.291 449.626 154.775 450.048 154.288C451.063 153.116 449.855 151.755 452.443 153.19L451.509 147.868C456.584 152.855 456.564 138.503 457.257 136.38C457.166 136.66 457.713 134.487 457.712 134.506C457.861 130.199 458.442 127.078 453.463 126.828C455.348 125.626 455.924 127.972 456.795 125.544C457.23 124.327 455.87 122.236 458.038 123.02C458.495 120.434 458.044 118.341 457.475 115.828C456.892 113.256 457.235 111.539 457.261 108.967C457.291 106.049 455.943 103.117 455.511 100.243C455.173 97.993 455.521 94.444 452.65 95.2707C452.246 94.6306 453.664 92.6618 453.607 91.6884C453.517 90.1763 451.897 88.6399 451.438 87.1879C450.763 87.8936 449.812 88.1289 448.893 87.8101C449.756 85.8372 448.946 85.1745 448.121 83.4734C447.647 82.4992 447.933 81.4235 446.92 80.7251C446.34 80.3243 445.35 80.9992 444.895 80.5296C443.92 79.5237 444.28 78.1893 443.609 76.8638C442.767 75.2016 440.845 73.9321 439.52 72.6845C432.072 65.6717 423.983 60.3121 414.075 57.5719C404.081 54.8073 392.429 53.8168 382.468 57.0056C378.486 58.28 374.952 58.1494 371.368 60.5295C370.206 61.3017 370.081 61.0949 369.491 62.3823C369.355 62.6824 370.592 63.4814 369.835 63.9722C369.011 64.5052 368.102 63.4214 367.683 62.5218C362.499 66.3231 357.641 71.3906 354.689 77.2012C351.755 82.9753 351.485 89.7586 350.365 96.0332C345.198 90.053 338.209 87.1863 330.61 90.0611C323.987 92.5661 318.854 98.0725 317.559 105.206C316.768 109.555 317.632 113.959 319.582 117.883C320.425 119.578 321.446 121.455 322.996 122.597C324.222 123.499 326.322 123.372 326.899 124.999C327.784 127.492 322.673 132.876 321.346 135.058C318.947 139.007 316.716 143.085 315.019 147.398C308.932 138.688 303.105 129.175 296.184 121.145C289.652 113.565 281.866 106.767 274.229 100.36C258.378 87.063 241.896 74.5705 224.165 63.9771C207.656 54.1129 187.713 48.6365 168.472 50.5728C149.672 52.4654 135.279 64.51 123.167 78.4018C99.8784 105.112 85.6149 143.182 84.2215 178.738C83.8027 189.419 84.6059 199.961 87.2101 210.32C88.4505 215.253 88.2703 220.105 88.991 225.101C89.8046 230.737 91.2116 236.353 92.5721 241.874C97.7547 262.906 104.358 283.922 111.768 304.257C115.62 314.832 120.282 325.17 126.588 334.495C129.5 338.802 133.273 342.172 136.408 346.262C139.448 350.229 140.251 355.097 140.92 359.965C142.523 371.635 143.587 383.355 144.551 395.094C144.96 400.069 145.438 405.001 146.088 409.941C146.655 414.248 145.229 414.037 141.652 415.499C142.377 411.629 125.287 414.262 123.674 414.527C121.918 414.814 120.058 414.818 118.675 415.046C117.129 415.301 115.615 415.67 113.834 415.618C111.217 415.542 106.315 414.865 105.316 418.25C104.628 414.325 100.084 418.617 103.446 417.888C99.9953 418.279 96.4743 417.629 92.9821 417.958C88.9798 418.334 84.943 418.693 80.9688 419.303C78.2021 419.727 75.5619 420.807 72.7904 421.12C69.2437 421.521 65.5425 421.484 61.9614 421.804C48.7525 422.984 35.0616 425.903 22.2219 429.245C19.3134 430.002 15.9718 430.54 13.193 431.755C12.4491 432.079 11.7797 432.806 11.067 433.085C9.87221 433.552 10.0356 433.229 8.97453 433.444C2.61713 434.731 -3.94127 436.834 -10.2979 438.484C-13.8237 439.399 -19.5589 440.225 -22.4353 442.718C-23.7246 443.834 -24.8513 445.814 -22.7853 447.083C-21.1348 448.096 -18.7789 446.479 -17.4432 445.604C-18.6332 448.746 -20.8778 450.312 -19.6654 453.886C-18.7085 456.71 -16.548 460.191 -13.2239 458.369C-12.7787 459.418 -12.5985 461.505 -11.2876 461.89C-10.1097 462.236 -9.25686 460.724 -8.10293 461.08C-7.68973 461.208 -7.84668 461.999 -7.47672 462.205C-6.8393 462.561 -6.19307 462.712 -5.46275 462.962C-4.83494 463.178 -3.82435 463.621 -3.16932 463.668C-2.75371 463.698 -1.77436 462.978 -1.77756 462.978C-0.823027 463.125 -0.309727 464.975 0.377344 465.51C1.26941 466.204 2.00613 466.362 3.12322 466.614C5.44549 467.136 8.43881 468.032 9.9715 465.623C9.62076 467.343 11.9294 467.174 12.948 467.392C12.8351 466.486 12.341 465.656 11.5787 465.159C13.8561 465.312 12.9328 467.605 14.616 468.211C15.8156 468.642 15.6795 467.546 16.5972 467.425C17.8063 467.265 18.724 468.154 20.6123 467.334C21.0215 469.176 21.1712 471.034 23.4046 471.309C24.7155 471.47 27.7721 469.072 27.5991 471.068C30.5276 470.198 31.639 470.786 33.1693 473.401C33.428 471.795 34.6796 472.261 35.8279 472.162C37.6481 472.005 37.6945 472.153 39.1055 471.109C39.2345 471.014 40.3443 468.439 40.8376 470.039C41.0594 470.756 39.5932 472.444 39.0503 472.873C39.7245 473.218 41.9339 474.428 42.7835 474.206C43.5186 474.013 43.521 472.741 44.4043 472.675C44.1881 473.407 43.9727 474.139 43.7557 474.871C45.4741 475.124 46.9099 473.959 48.2673 473.106C49.5613 476.42 53.2601 474.553 55.2717 477.047C56.3359 478.367 56.3856 479.37 58.4132 479.714C60.488 480.067 62.3002 479.145 64.0635 480.878C63.5045 479.803 62.112 478.91 63.4957 477.755C64.4374 479.108 64.9235 480.739 66.0094 481.998C66.1591 481.358 66.3089 480.718 66.4586 480.077C69.2894 483.144 72.8529 483.171 76.4788 484.871V482.627C79.0749 486.64 79.2135 484.101 82.3149 482.461C82.1043 483.641 81.8929 484.822 81.6823 486.001C83.914 485.831 85.9993 488.509 87.8315 486.234C88.9381 488.114 90.2794 487.189 92.0932 487.786C93.1246 488.126 93.8926 489.154 94.896 489.527C96.4006 490.085 96.8499 490.059 98.2664 490.545C99.5261 490.976 100.242 491.817 101.819 492.086C102.843 492.261 103.772 492.248 104.752 492.2C105.131 492.182 105.006 491.319 105.847 491.52C107.149 491.832 108.118 493.485 109.055 494.333C110.464 490.744 114.41 495.551 116.318 496.191C116.5 495.272 116.467 494.163 117.125 493.407C117.897 495.12 118.191 496.56 119.794 497.663C120.719 498.3 122.077 498.756 123.145 498.988C123.82 499.135 125.047 498.959 125.471 499.17C126.195 499.53 126.462 500.489 127.193 500.579C127.623 500.632 128.261 499.486 128.582 499.575C130.056 499.982 130.874 501.795 132.362 502.776C136.79 505.694 142.361 505.977 147.294 506.617C148.532 506.777 148.712 506.434 149.717 507.17C150.254 507.564 150.011 508.759 150.67 509.094C153.157 510.357 153.158 507.663 153.68 505.99C154.502 507.089 154.644 508.54 155.769 509.415C156.383 509.397 156.998 509.411 157.612 509.457C157.957 509.857 158.185 510.318 158.291 510.842C159.78 511.861 161.467 511.506 163.006 512.271C163.51 512.522 164.404 514.038 165.025 514.473C166.137 515.254 167.858 515.671 169.128 516.01C171.793 516.72 175.615 515.776 177.2 518.595C179.306 516.309 178.491 519.039 179.921 519.612C180.765 519.951 182.034 518.605 182.97 518.739C184.656 518.979 185.263 520.828 185.802 522.172C186.829 521.94 186.124 518.997 186.095 518.353C187.371 518.2 187.654 521.603 187.875 522.351C189.889 521.369 186.583 518.311 188.748 517.33C188.55 519.935 190.599 522.08 186.939 522.453C187.445 524.022 199.248 525.764 200.068 524.38C200.25 526.94 201.948 524.549 202.574 523.672C202.644 525.166 202.142 527.285 203.797 527.98C204.921 528.451 207.456 527.232 207.897 526.116C208.401 527.821 209.245 527.766 210.294 528.849C211.015 529.593 211.49 530.882 212.246 531.505C213.637 532.652 216.224 532.476 217.845 532.22C221.016 531.719 220.641 531.103 221.771 534.442C222.026 533.175 222.827 530.525 224.224 532.495C225.113 533.747 223.22 536.506 222.673 537.605C223.895 536.925 225.109 536.119 226.499 535.826C226.576 536.26 226.648 537.18 226.443 537.582C226.484 537.501 227.967 538.508 228.518 538.787C228.385 538.72 228.952 536.212 228.936 536.294C230.893 537.517 229.535 539.856 231.268 541.062C231.716 541.374 232.766 541.01 233.308 541.2C234.25 541.531 235.066 542.426 235.903 542.949C235.234 542.04 235.331 540.515 235.376 539.466C235.802 539.705 236.107 540.597 236.537 540.668C236.699 540.695 238.385 540.921 238.374 540.913C240.128 542.157 239.767 542.314 238.261 543.81C238.799 544.667 241.048 543.178 241.657 542.931C241.784 543.266 241.817 544.483 242.056 544.7C242.201 545.06 242.347 545.421 242.493 545.781C242.942 545.442 243.424 545.328 243.938 545.441C244.263 545.555 246.801 546.601 246.973 546.243C246.418 546.061 245.914 545.782 245.464 545.407C246.929 544.073 247.892 543.364 249.242 545.29C249.412 545.533 248.828 546.404 249.001 546.72C249.645 547.898 250.97 548.835 251.869 549.795C252.241 548.47 251.375 545.153 253.443 545.274C255.095 545.369 256.351 549.424 255.779 550.684C256.436 549.957 260.357 549.234 261.097 549.461C263.189 550.104 262.602 552.064 265.176 549.192C266.932 550.419 265.385 550.884 265.701 552.38C266.165 552.478 266.603 552.362 267.019 552.032C266.708 558.389 271.339 553.532 274.346 554.503C275.527 554.884 275.828 556.241 277.095 556.638C277.766 556.847 278.511 556.351 279.163 556.472C279.685 556.397 280.204 556.304 280.72 556.193C281.373 555.861 281.68 556.231 281.64 557.305C282.69 557.857 282.293 558.073 283.522 558.18C284.313 558.25 285.041 557.416 285.94 557.558C287.491 557.804 287.286 559.011 288.277 559.641C289.169 560.209 290.175 560.19 291.274 560.081C291.834 560.025 293.406 559.294 293.595 559.291C294.769 559.275 294.132 559.022 295.541 560.043C296.638 560.84 297.099 561.356 298.446 561.722C299.99 562.142 302.731 563.059 303.77 561.928C305.174 564.06 306.273 562.495 308.126 562.637C309.075 562.71 309.225 563.084 310.069 563.233C311.437 563.475 313.143 563.265 314.598 563.738C316.891 564.485 317.15 564.859 319.493 564.96C319.915 564.793 320.338 564.625 320.76 564.458C320.887 565.172 321.219 565.756 321.758 566.208C323.069 566.486 323.93 565.816 325.011 565.082C325.816 567.623 328.43 567.845 330.666 568.18C334.274 568.719 337.723 569.014 341.202 570.215C344.14 571.229 347.084 572.368 349.91 573.666C352.397 574.809 354.744 576.519 357.558 575.716C363.934 573.898 370.112 567.268 375.446 563.461C381.765 558.952 388.578 555.237 395.18 551.183C421.462 535.045 449.227 521.394 475.141 504.655C489.288 495.517 502.415 484.659 517.608 477.266C515.445 486.32 511.763 495.511 512.429 504.99C512.696 508.81 513.807 513.322 516.731 515.989C520.347 519.286 524.374 517.187 527.832 514.831C535.242 509.785 540.182 502.421 545.728 495.506C552.287 487.326 557.374 478.537 562.191 469.214C563.345 470.855 562.467 473.604 562.484 475.424C562.507 477.746 563.125 479.983 564.187 482.055C566.931 487.405 572.152 488.702 576.869 485.037C585.949 477.983 591.218 465.422 596.082 455.306C598.857 460.535 602.795 467.117 609.459 463.383C614.957 460.301 618.187 453.415 619.869 447.582C624.779 430.557 623.223 413.214 623.978 395.762Z" fill="black"/>
<path fill-rule="evenodd" clip-rule="evenodd" d="M615.639 293.496C615.012 291.953 614.737 292.205 615.89 290.709C616.789 291.606 616.069 292.346 615.639 293.496ZM643.427 386.875C641.663 381.797 642.752 376.283 641.682 371.074C641.19 368.684 640.414 366.366 640.135 363.933C640.01 362.853 639.062 357.993 639.708 357.229C637.719 356.008 637.712 355.106 637.253 352.713C637.961 351.952 637.872 351.302 636.985 350.762C636.405 350.052 635.825 349.34 635.244 348.63C637.782 349.886 636.28 346.67 636.022 344.816C635.817 343.351 635.679 341.823 635.197 340.419C634.604 338.693 633.284 337.82 636.029 337.82C635.126 336.779 633.775 335.705 633.325 334.431C632.678 332.596 633.745 330.173 632.425 328.553C631.69 327.649 627.896 327.295 628.562 325.344C628.9 324.349 630.438 325.091 630.914 324.394C632.783 321.656 627.263 320.521 626.992 319.356C626.641 317.846 628.635 317.508 628.758 316.096C628.877 314.714 626.756 312.442 626.195 311.206C625.431 311.394 624.594 312.618 623.719 312.033C623.554 311.923 623.803 307.138 623.604 306.503C623.409 305.878 623.009 304.222 622.867 303.915C622.3 302.697 620.68 302.104 620.423 300.666C620.27 299.808 623.59 298.508 619.782 298.468C621.15 296.026 618.644 294.542 617.732 292.456C616.56 289.773 615.868 286.876 614.664 284.179C613.493 281.558 612.184 279.071 610.496 276.754C608.968 274.655 608.308 272.637 607.086 270.421C606.842 270.226 606.598 270.031 606.354 269.837C605.335 269.986 605.008 269.516 605.373 268.427C604.594 267.258 604.015 266.01 603.328 264.789C602.53 263.37 601.453 262.214 600.628 260.834C599.533 259.005 599.21 256.942 597.973 255.107C596.452 252.849 594.741 250.859 593.331 248.517C591.565 245.583 589.608 243.759 587.385 241.487C586.328 240.405 586.2 237.702 584.904 236.165C583.492 234.492 582.098 234.038 581.119 231.842C579.846 228.984 577.978 227.619 576.159 225.149C574.659 223.112 573.926 220.77 572.273 218.798C570.852 217.105 569.238 215.558 567.721 213.953C565.805 211.926 564.391 209.462 562.397 207.535C562.685 207.813 560.662 206.189 560.764 206.241C560.316 206.01 558.871 205.824 559.082 205.95C556.073 204.158 552.302 197.599 547.773 201.075C545.391 202.902 546.534 206.254 548.197 208.074C548.911 208.856 552.623 212.711 553.424 211.086C554.29 212.328 556.956 218.336 559.173 216.615C558.947 218.668 560.121 217.986 560.896 219.374C561.407 220.29 561.158 220.74 561.53 222.169C562.552 226.098 566.454 229.936 568.532 233.363C573.704 241.891 579.41 249.979 584.587 258.517C589.52 266.654 595.046 274.375 599.779 282.622C605.163 291.999 611.87 300.851 615.926 310.96C616.063 311.3 617.19 311.838 617.469 312.348C617.957 313.235 617.852 314.768 618.166 315.772C619.254 319.254 621.018 322.681 623.028 325.565C624.792 328.095 624.92 331.534 626.133 334.502C627.844 338.685 629.652 342.825 631.314 347.029C633.901 353.573 635.654 359.845 637.442 366.677C638.601 371.105 639.523 375.53 639.892 380.102C640.231 384.306 640.315 388.686 641.851 392.667C642.898 391.028 644.132 388.905 643.427 386.875Z" fill="black"/>
<path fill-rule="evenodd" clip-rule="evenodd" d="M51.5391 476.968C49.6796 476.588 47.9299 476.08 47.536 473.917C47.2661 474.937 46.997 475.957 46.7272 476.976C48.991 477.495 51.2556 478.015 53.5194 478.535C52.9909 477.591 52.6049 477.186 51.5391 476.968Z" fill="black"/>
<path fill-rule="evenodd" clip-rule="evenodd" d="M56.5283 122.036C56.6692 121.426 56.8518 120.828 57.0768 120.245C57.2297 120.813 57.9793 122.043 57.5429 122.579C56.9871 123.26 56.425 122.874 56.5283 122.036ZM65.6436 104.467C66.2538 104.739 67.5742 104.792 68.3318 105.022C66.3667 106.735 66.0207 106.231 63.4798 106.032C63.3669 104.3 64.062 103.762 65.6436 104.467ZM48.6101 147.361C48.8736 147.369 49.1379 147.375 49.4029 147.382C49.4189 146.627 49.3997 145.874 49.3437 145.121C52.0231 145.714 50.5064 140.971 49.6648 139.988C52.2785 140.076 53.5518 131.693 54.3798 130.078C55.1149 128.644 55.9477 128.089 56.485 126.34C56.9551 124.809 57.4636 123.432 58.1418 121.984C59.7002 118.655 61.7446 115.631 61.3674 111.751C62.6879 114.663 63.849 111.756 64.6866 110.364C66.0359 108.121 69.3279 105.259 69.6779 102.595C69.987 100.25 68.2669 100.126 69.2823 97.9512C70.3089 95.7497 71.1529 95.9703 72.9515 95.2662C74.1479 94.7973 74.3857 95.3668 75.2297 93.8368C75.7766 92.8464 75.5837 92.1082 76.2843 91.2962C76.5734 91.5509 76.9025 91.6564 77.2709 91.6125C77.8395 90.8525 78.2126 90.0056 78.3896 89.0719C78.8532 87.8113 79.0775 86.6537 79.7757 85.4531C80.438 84.3158 81.6135 81.273 82.2365 80.7246C82.898 80.1422 86.6496 80.4383 86.6336 80.4594C88.1831 78.4849 85.3396 76.5178 89.277 76.9339C88.4995 75.4673 91.2309 73.6469 92.0237 72.8309C94.004 70.794 94.1618 69.8513 94.5798 67.2896C94.792 65.9836 93.4066 66.1344 95.2636 65.8367C96.0316 65.7142 96.7683 66.7088 97.3225 66.5628C99.7689 65.9203 97.2096 66.0428 97.8846 65.0328C98.0976 64.7124 99.1859 63.4194 99.1755 63.4332C99.1226 63.498 99.4205 62.308 99.6672 62.0022C100.135 61.9616 100.595 61.8789 101.048 61.754C101.278 61.2835 101.481 60.8016 101.657 60.3084C103.428 58.8126 106.077 58.1433 107.301 56.4998C108.093 55.4372 107.856 54.3964 108.879 53.337C109.854 52.3279 111.143 53.0587 111.336 50.7793C111.582 47.8792 108.507 46.5886 107.249 49.5154C103.838 45.2591 89.5789 60.8754 87.9317 62.9156C80.7767 71.7723 73.7443 80.8479 67.8753 90.6415C62.157 100.184 57.4636 110.225 53.7952 120.751C52.0263 125.826 50.9492 130.878 49.869 136.127C49.5062 137.885 46.7956 145.719 47.9239 147.472C48.1521 147.435 48.3811 147.398 48.6101 147.361Z" fill="black"/>
<path fill-rule="evenodd" clip-rule="evenodd" d="M611.804 364.551C613.009 363.737 613.009 363.737 613.22 362.198C611.604 362.496 611.604 362.496 611.804 364.551Z" fill="black"/>
<path fill-rule="evenodd" clip-rule="evenodd" d="M17.7548 468.08C17.7701 468.079 17.7814 468.083 17.7903 468.092C17.7645 468.059 17.6709 467.96 17.7548 468.08Z" fill="black"/>
<path fill-rule="evenodd" clip-rule="evenodd" d="M16.9459 468.906C17.3182 469.721 17.9164 469.924 18.7412 469.513C19.0663 469.983 15.9209 466.577 16.9459 468.906Z" fill="black"/>
<path fill-rule="evenodd" clip-rule="evenodd" d="M71.3396 96.8135C69.4522 100.562 71.8161 97.8356 71.6952 99.0532C71.7745 98.2534 72.102 97.1136 71.3396 96.8135Z" fill="black"/>
<path fill-rule="evenodd" clip-rule="evenodd" d="M378.192 154.831C379.01 161.553 388.087 158.374 390.129 154.308C391.616 151.348 395.371 139.651 391.331 137.181C388.336 135.349 387.697 143.243 386.958 145.007C385.721 147.961 384.754 145.868 382.004 146.625C378.968 147.462 377.854 152.044 378.192 154.831Z" fill="black"/>
<path fill-rule="evenodd" clip-rule="evenodd" d="M368.274 142.529C371.519 143.259 374.699 142.882 377.004 140.286C378.28 138.849 379.979 135.998 377.681 134.606C375.598 133.347 373.236 136.297 371.043 135.687C368.06 134.857 369.596 131.617 368.573 129.477C364.812 131.671 362.714 141.278 368.274 142.529Z" fill="black"/>
<path fill-rule="evenodd" clip-rule="evenodd" d="M371.638 159.501C368.51 159.494 368.485 163.391 370.117 165.061C371.68 166.66 375.631 168.277 377.749 167.034C381.927 164.581 374.169 159.754 371.638 159.501Z" fill="black"/>
<path fill-rule="evenodd" clip-rule="evenodd" d="M189.646 314.47C190.314 314.798 192.282 316.489 193.111 315.725C191.941 314.53 190.769 313.336 189.598 312.141C188.951 312.859 188.508 313.91 189.646 314.47Z" fill="black"/>
<path fill-rule="evenodd" clip-rule="evenodd" d="M174.864 143.501C174.532 143.752 174.199 144.003 173.866 144.254C174.988 145.2 174.96 145.482 176.091 144.585C175.755 144.138 175.347 143.777 174.864 143.501Z" fill="black"/>
<path fill-rule="evenodd" clip-rule="evenodd" d="M386.855 366.511C386.226 365.367 385.038 367.477 384.235 367.82C382.928 368.377 381.856 365.424 382.231 368.964C379.277 367.593 377.484 370.737 375.579 372.374C372.887 374.687 369.595 375.942 367.8 379.228C376.251 381.23 385.536 373.85 391.837 369.002C392.865 368.211 398.005 364.217 394.521 363.831C393.097 363.674 387.912 368.434 386.855 366.511Z" fill="black"/>
<path fill-rule="evenodd" clip-rule="evenodd" d="M384.348 359.582C386.004 358.261 382.433 358.14 381.869 358.002C381.918 359.052 381.965 360.102 382.014 361.152C382.813 360.662 383.591 360.137 384.348 359.582Z" fill="black"/>
<path fill-rule="evenodd" clip-rule="evenodd" d="M378.13 363.987C378.624 363.674 380.004 362.696 379.066 361.968C378.218 362.515 377.611 363.407 377.479 364.425C377.696 364.279 377.913 364.133 378.13 363.987Z" fill="black"/>
<path fill-rule="evenodd" clip-rule="evenodd" d="M241.266 278.805C240.208 279.225 239.734 279.889 239.846 280.799C241.471 280.463 241.161 278.908 241.266 278.805Z" fill="black"/>
</svg>
