<svg width="40" height="40" viewBox="0 0 40 40" fill="none" xmlns="http://www.w3.org/2000/svg">
<path d="M38.3334 5.00004C36.7373 6.12583 34.9702 6.98688 33.1 7.55004C32.0963 6.39589 30.7622 5.57786 29.2784 5.20658C27.7946 4.8353 26.2325 4.9287 24.8035 5.47412C23.3745 6.01955 22.1474 6.9907 21.2883 8.25623C20.4292 9.52176 19.9795 11.0206 20 12.55V14.2167C17.0711 14.2926 14.1688 13.6431 11.5517 12.3258C8.93459 11.0085 6.68388 9.06443 5.00002 6.6667C5.00002 6.6667 -1.66665 21.6667 13.3334 28.3334C9.9009 30.6633 5.81195 31.8316 1.66669 31.6667C16.6667 40 35 31.6667 35 12.5C34.9985 12.0358 34.9539 11.5727 34.8667 11.1167C36.5677 9.43919 37.7681 7.32122 38.3334 5.00004V5.00004Z" stroke="#366C34" stroke-width="2" stroke-linecap="round" stroke-linejoin="round"/>
</svg>
